<?xml version="1.0" encoding="UTF-8" standalone="no"?>
<!-- Created with Inkscape (http://www.inkscape.org/) -->

<svg
   width="90"
   height="90"
   viewBox="0 0 285.74999 285.74999"
   version="1.1"
   id="svg1"
   xml:space="preserve"
   inkscape:version="1.4 (86a8ad7, 2024-10-11)"
   sodipodi:docname="logo.svg"
   xmlns:inkscape="http://www.inkscape.org/namespaces/inkscape"
   xmlns:sodipodi="http://sodipodi.sourceforge.net/DTD/sodipodi-0.dtd"
   xmlns="http://www.w3.org/2000/svg"
   xmlns:svg="http://www.w3.org/2000/svg"><sodipodi:namedview
     id="namedview1"
     pagecolor="#505050"
     bordercolor="#eeeeee"
     borderopacity="1"
     inkscape:showpageshadow="0"
     inkscape:pageopacity="0"
     inkscape:pagecheckerboard="0"
     inkscape:deskcolor="#505050"
     inkscape:document-units="mm"
     inkscape:zoom="0.72604517"
     inkscape:cx="629.43742"
     inkscape:cy="526.82673"
     inkscape:window-width="1920"
     inkscape:window-height="1017"
     inkscape:window-x="-8"
     inkscape:window-y="-8"
     inkscape:window-maximized="1"
     inkscape:current-layer="layer1" /><defs
     id="defs1" /><g
     inkscape:label="Ramka"
     inkscape:groupmode="layer"
     id="layer1"
     transform="matrix(1.168407,0,0,1.168407,-24.06115,-24.06115)"><g
       id="ramka"
       style="display:inline"
       transform="matrix(0.95625756,0,0,0.95625756,6.0357561,6.0904054)"><path
         style="display:inline;fill:#2285ec"
         d="m 141.24085,255.28261 c -2.23484,-0.27188 -5.29083,-0.98992 -6.86237,-1.61238 -2.76268,-1.09426 -83.079596,-42.6261 -84.815759,-43.8582 -3.110588,-2.20747 -5.692421,-5.49721 -7.249262,-9.23691 -1.703944,-4.09306 -1.631193,-1.32801 -1.546325,-58.77164 0.0731,-49.481156 0.101268,-52.19234 0.557816,-53.69969 1.593667,-5.261684 4.813646,-9.702217 9.031521,-12.454978 1.864722,-1.216995 82.498819,-42.772259 84.269789,-43.428941 5.34288,-1.981156 11.59169,-1.981101 16.93334,1.5e-4 1.82445,0.676702 82.41866,42.223421 84.40208,43.509701 3.36128,2.179838 6.70648,6.423079 8.10828,10.285004 1.46763,4.043269 1.41689,1.995616 1.41472,57.090904 -0.001,33.41855 -0.0949,51.42063 -0.27327,52.55128 -0.40976,2.59777 -1.4454,5.47512 -2.80925,7.80498 -1.45258,2.48144 -4.56035,5.69161 -6.83736,7.06262 -2.54419,1.53189 -81.91487,42.41605 -83.77419,43.15243 -2.83103,1.12121 -8.02896,1.91234 -10.54976,1.60567 z m 6.19562,-13.4333 c 2.69468,-1.00136 81.42013,-41.83017 82.57745,-42.82655 0.58504,-0.50367 1.41847,-1.55634 1.85208,-2.33925 l 0.78839,-1.42347 V 143.11843 90.976814 l -0.79375,-1.54249 c -0.45877,-0.891516 -1.29623,-1.958636 -1.98438,-2.528552 -1.18139,-0.978419 -80.30438,-42.009137 -82.94687,-43.013666 -0.98437,-0.374203 -2.00001,-0.501639 -3.96875,-0.497973 -2.46057,0.0046 -2.79405,0.07136 -4.7625,0.953635 -4.94485,2.216322 -81.030373,41.780613 -82.068826,42.675592 -0.608479,0.524409 -1.441916,1.636881 -1.852084,2.472159 l -0.745759,1.518687 v 52.122914 52.12292 l 0.788383,1.42347 c 0.433611,0.78291 1.267048,1.83567 1.852084,2.33946 1.02304,0.88098 78.692672,41.23787 82.003812,42.60893 0.86082,0.35644 2.11097,0.74663 2.77813,0.86709 1.7772,0.3209 4.64385,0.0336 6.48259,-0.64968 z m 65.66915,0.61549 c -2.0665,-1.6255 -1.76818,-4.34007 0.60352,-5.49171 3.25091,-1.57856 31.63774,-18.15199 33.69436,-19.67219 5.231,-3.86661 9.28236,-10.03491 11.12376,-16.9362 l 0.58546,-2.19424 V 142.87254 87.574623 l -0.72864,-2.645833 c -1.41957,-5.154739 -4.82915,-10.939537 -8.39194,-14.238059 -2.57271,-2.381874 -4.20652,-3.421185 -17.86692,-11.365676 -7.13052,-4.146903 -13.91708,-8.131612 -15.08125,-8.854908 -1.16417,-0.723297 -2.62735,-1.575408 -3.25152,-1.893581 -1.35218,-0.689275 -2.17009,-1.913549 -2.17145,-3.250292 -0.001,-1.164871 1.39871,-2.844614 2.4115,-2.893577 1.32395,-0.06401 1.78464,0.128367 5.12814,2.14138 1.89177,1.138975 9.18957,5.412702 16.21734,9.497171 7.02777,4.084468 13.69271,8.054897 14.81098,8.823174 6.58786,4.526005 12.08089,12.509478 14.18117,20.610656 1.27199,4.906308 1.25948,4.250758 1.16543,61.087252 l -0.0886,53.57813 -0.57652,2.43556 c -2.26587,9.57231 -7.87874,17.78748 -15.665,22.92775 -2.74331,1.81106 -30.79155,18.16064 -31.15517,18.16064 -0.12207,0 -0.65999,0.29766 -1.19538,0.66146 -1.23077,0.83634 -2.76771,0.88099 -3.74922,0.10893 z M 69.362016,242.21738 c -0.461012,-0.10047 -1.353981,-0.48169 -1.984375,-0.84716 C 35.396886,222.82969 35.50459,222.89581 32.157594,219.74749 26.717335,214.63016 23.168546,208.35194 21.30711,200.55171 l -0.568258,-2.38125 -0.08248,-54.1073 c -0.07452,-48.888256 -0.04101,-54.375257 0.347401,-56.885412 1.534509,-9.916873 7.236233,-18.993414 15.422492,-24.550976 1.258695,-0.854514 9.088648,-5.502774 17.399896,-10.329468 10.915893,-6.339321 15.336956,-8.775806 15.923921,-8.775806 1.265917,0 2.122795,0.439071 2.697984,1.382468 0.967453,1.586769 0.477808,3.705754 -1.035875,4.482856 C 67.96726,51.155396 41.372126,66.672972 39.445205,68.038735 33.934196,71.94483 29.706723,78.080003 27.807028,84.92879 l -0.733893,2.645833 v 55.297917 55.29792 l 0.627428,2.38125 c 1.75408,6.65718 5.906492,12.92403 11.113671,16.77283 2.454406,1.81413 29.291709,17.41253 32.434441,18.85157 0.991542,0.45402 1.994251,1.92458 1.994251,2.92474 0,2.00295 -1.919124,3.54408 -3.880913,3.11653 z"
         id="path4" /></g></g><g
     inkscape:groupmode="layer"
     id="layer2"
     inkscape:label="Tekst"><g
       id="tekst"
       transform="matrix(1.0915467,0,0,1.0915467,-2.6901409,-13.65893)"
       style="display:inline;stroke-width:1.00042;stroke-dasharray:none"><text
         xml:space="preserve"
         style="font-size:110.0px;line-height:0;text-align:start;writing-mode:lr-tb;direction:ltr;text-anchor:start;fill:#00ffff;stroke-width:0;stroke-dasharray:none"
         x="48.0"
         y="185.0"
         id="text7"
         transform="scale(1.0022657,0.99773941)"><tspan
           sodipodi:role="line"
           id="tspan7"
           style="font-style:normal;font-variant:normal;font-weight:normal;font-stretch:normal;font-size:110.0px;line-height:0;font-family:'Ace Sans';-inkscape-font-specification:'Ace Sans';fill:#ffffff;stroke:#ffffff;stroke-width:0;stroke-dasharray:none;stroke-opacity:0"
           x="48.0"
           y="185.0">W</tspan></text><text
         xml:space="preserve"
         style="font-style:normal;font-variant:normal;font-weight:normal;font-stretch:normal;font-size:110.0px;line-height:0;font-family:'Ace Sans';-inkscape-font-specification:'Ace Sans';text-align:start;writing-mode:lr-tb;direction:ltr;text-anchor:start;fill:#ffffff;stroke-width:1.3742;stroke-dasharray:none"
         x="137.0"
         y="185.0"
         id="text1"
         transform="scale(0.97952806,1.0208998)"><tspan
           sodipodi:role="line"
           id="tspan1"
           style="stroke:#ffffff;stroke-width:1.3742;stroke-dasharray:none;stroke-opacity:0"
           x="137.0"
           y="185.0">G</tspan></text></g></g></svg>
